<svg width="148px" height="42px" viewBox="0 0 148 42" version="1.1" xmlns="http://www.w3.org/2000/svg" xmlns:xlink="http://www.w3.org/1999/xlink">
    <!-- Generator: Sketch 45 (43475) - http://www.bohemiancoding.com/sketch -->
    <desc>Created with Sketch.</desc>
    <defs>
        <linearGradient x1="99.9589304%" y1="50.0029895%" x2="0%" y2="50.0029922%" id="linearGradient-1">
            <stop stop-color="#00FFB7" offset="0%"></stop>
            <stop stop-color="#00FFB7" offset="0%"></stop>
            <stop stop-color="#40BF9B" offset="0.00597895408%"></stop>
            <stop stop-color="#00FFB7" offset="100%"></stop>
        </linearGradient>
    </defs>
    <g id="Page-1" stroke="none" stroke-width="1" fill="none" fill-rule="evenodd">
        <g id="Artboard-2" transform="translate(-28.000000, -18.000000)">
            <g id="Group-2" transform="translate(28.000000, 18.000000)">
                <g id="Group" transform="translate(68.000000, 8.000000)" font-size="26" font-family="Volkswagen-Serial-Bold, Volkswagen-Serial" fill="#40BF9B" font-weight="bold">
                    <text id="T">
                        <tspan x="0" y="25">T</tspan>
                    </text>
                    <text id="u">
                        <tspan x="13" y="25">u</tspan>
                    </text>
                    <text id="r">
                        <tspan x="30" y="25">r</tspan>
                    </text>
                    <text id="t">
                        <tspan x="44" y="25">t</tspan>
                    </text>
                    <text id="l">
                        <tspan x="56" y="25">l</tspan>
                    </text>
                    <text id="e">
                        <tspan x="66" y="25">e</tspan>
                    </text>
                </g>
                <g id="Group" transform="translate(0.015336, 0.464592)">
                    <path d="M29.5196865,38.2137232 C45.6596178,38.2137232 58.7908814,48.1527048 58.7908814,32.0003183 C58.7908814,15.8479318 45.8645831,0 29.7246518,0 C13.5847205,0 0.24849149,15.4704415 0.24849149,32.0003183 C0.24849149,48.5301952 13.3797552,38.2137232 29.5196865,38.2137232 Z" id="Oval" fill="url(#linearGradient-1)"></path>
                    <path d="M37.0280915,38.5103469 C41.4180459,38.5103469 45.3507078,37.057544 47.6507795,34.9458263 C47.6580062,34.9391914 47.53126,34.7733584 47.2580054,34.3540532 C46.799946,33.6511676 46.1938071,32.5884626 45.5894007,31.463945 C45.2790418,30.8865123 43.200113,26.3857003 42.8526866,25.5221627 C41.9733724,23.3366035 41.7905035,22.985194 41.7885695,22.9769606 C40.2487216,22.7729928 38.7104103,22.4019608 37.0280915,22.4019608 C29.9562643,22.4019608 24.2234157,26.0079459 24.2234157,30.4561539 C24.2234157,34.9043619 29.9562643,38.5103469 37.0280915,38.5103469 Z" id="Oval-2" fill="#FFFFFF" transform="translate(35.937244, 30.456154) rotate(120.000000) translate(-35.937244, -30.456154) "></path>
                </g>
            </g>
        </g>
    </g>
</svg>
