
<svg width="148px" height="42px" viewBox="0 0 148 42" version="1.1" xmlns="http://www.w3.org/2000/svg" xmlns:xlink="http://www.w3.org/1999/xlink">
    <!-- Generator: Sketch 45 (43475) - http://www.bohemiancoding.com/sketch -->
    <desc>Created with Sketch.</desc>
    <defs>
        <linearGradient x1="99.9589304%" y1="50.0029895%" x2="0%" y2="50.0029922%" id="linearGradient-1">
            <stop stop-color="#00FFB7" offset="0%"></stop>
            <stop stop-color="#00FFB7" offset="0%"></stop>
            <stop stop-color="#40BF9B" offset="0.00597895408%"></stop>
            <stop stop-color="#00FFB7" offset="100%"></stop>
        </linearGradient>
    </defs>
    <g id="Page-1" stroke="none" stroke-width="1" fill="none" fill-rule="evenodd">
        <g id="Artboard-2" transform="translate(-28.000000, -18.000000)">
            <g id="Group-2" transform="translate(28.000000, 18.000000)">
                <g id="Group" transform="translate(68.000000, 8.000000)" font-size="26" font-family="Volkswagen-Serial-Bold, Volkswagen-Serial" fill="#40BF9B" font-weight="bold">
                    <text id="T">
                        <tspan x="0" y="25">T</tspan>
                    </text>
                    <text id="u">
                        <tspan x="13" y="25">u</tspan>
                    </text>
                    <text id="r">
                        <tspan x="30" y="25">r</tspan>
                    </text>
                    <text id="t">
                        <tspan x="44" y="25">t</tspan>
                    </text>
                    <text id="l">
                        <tspan x="56" y="25">l</tspan>
                    </text>
                    <text id="e">
                        <tspan x="66" y="25">e</tspan>
                    </text>
                </g>
                <g id="Group" transform="translate(0.015336, 0.464592)">
                    <path d="M29.5196865,38.2137232 C45.6596178,38.2137232 58.7908814,48.1527048 58.7908814,32.0003183 C58.7908814,15.8479318 45.8645831,0 29.7246518,0 C13.5847205,0 0.24849149,15.4704415 0.24849149,32.0003183 C0.24849149,48.5301952 13.3797552,38.2137232 29.5196865,38.2137232 Z" id="Oval" fill="url(#linearGradient-1)"></path>
                    <path d="M37.0216981,38.5140382 C41.4116525,38.5140382 45.3443144,37.0612353 47.6443861,34.9495176 C47.6516128,34.9428826 47.6875906,35.0243501 47.5343803,34.7935278 C47.3811699,34.5627055 47.3009448,34.3863629 47.2736716,34.3419671 C46.8684072,33.6822714 46.1533621,32.6307707 45.5117483,31.519463 C45.1951182,30.9710436 44.2063188,28.9261685 44.2040199,28.9214531 C43.7774338,28.0464722 43.6521819,27.7580064 43.4309433,27.239969 C43.2097048,26.7219317 43.0943691,26.4572983 42.7625992,25.5823218 C42.572753,25.0816403 42.2810823,24.350288 42.0494443,23.7407944 C41.9543284,23.4905223 41.8576981,23.2168354 41.7943218,23.0412437 C41.7309455,22.865652 41.7841101,22.9888853 41.7821761,22.9806519 C40.2423282,22.776684 38.7040169,22.405652 37.0216981,22.405652 C29.9498709,22.405652 24.2170223,26.0116371 24.2170223,30.4598451 C24.2170223,34.9080531 29.9498709,38.5140382 37.0216981,38.5140382 Z" id="Oval-2" fill="#FFFFFF" transform="translate(35.935113, 30.459845) rotate(120.000000) translate(-35.935113, -30.459845) "></path>
                </g>
            </g>
        </g>
    </g>
</svg>
